# xmcd
#
# Track frame offsets: 
#        150
#        18453
#        46133
#        71969
#        89707
#        125201
#        142181
#        197291
#        225935
#        241048
#        266877
#
# Disc length: 3984 seconds
#
# Revision: 1
# Processed by: cddbd v1.5.2PL0 Copyright (c) Steve Scherf et al.
# Submitted via: ExactAudioCopy v0.95b4
#
DISCID=9e0f8e0b
DTITLE=Joachim Kühn With Jean-Paul Celea And Wolfgang Reisinger - Pois
DTITLE=on
DYEAR=2005
DGENRE=Jazz
TTITLE0=Purple Haze
TTITLE1=Lucy In The Sky With Diamonds
TTITLE2=Angel Dust
TTITLE3=Cocaine
TTITLE4=Höhenrausch
TTITLE5=Griserie
TTITLE6=Sister Morphine
TTITLE7=The Man With The Golden Arm
TTITLE8=Mushrooms
TTITLE9=Requila
TTITLE10=White Widow
EXTD=YEAR: 2005
EXTT0=
EXTT1=
EXTT2=
EXTT3=
EXTT4=
EXTT5=
EXTT6=
EXTT7=
EXTT8=
EXTT9=
EXTT10=
PLAYORDER=
